<?xml version="1.0" encoding="UTF-8"?>
<svg width="200px" height="34px" viewBox="0 0 200 34" version="1.1" xmlns="http://www.w3.org/2000/svg" xmlns:xlink="http://www.w3.org/1999/xlink">
    <!-- Generator: Sketch 51.1 (57501) - http://www.bohemiancoding.com/sketch -->
    <title>Artboard</title>
    <desc>Created with Sketch.</desc>
    <defs>
        <linearGradient x1="0%" y1="0%" x2="100%" y2="100%" id="linearGradient-1">
            <stop stop-color="#4CD9D9" offset="0%"></stop>
            <stop stop-color="#4CD9AA" offset="100%"></stop>
        </linearGradient>
    </defs>
    <g id="Artboard" stroke="none" stroke-width="1" fill="none" fill-rule="evenodd">
        <g id="Group-Copy">
            <path d="M135.728266,11.4181292 C138.705431,11.4181292 141.240443,13.5404645 141.240443,17.5198432 L141.240443,26.569245 L136.818911,26.569245 L136.818911,18.1683345 C136.818911,16.340768 135.669312,15.4859385 134.254422,15.4859385 C132.633194,15.4859385 131.513073,16.4291986 131.513073,18.522057 L131.513073,26.569245 L127.091541,26.569245 L127.091541,11.8308055 L131.513073,11.8308055 L131.513073,13.2162188 C132.308948,12.1255743 133.782792,11.4181292 135.728266,11.4181292 Z M154.574396,11.8308055 L158.87802,11.8308055 L158.87802,25.832323 C158.87802,30.7844387 155.016549,32.8772971 151.096124,32.8772971 C148.030528,32.8772971 145.46604,31.7276989 144.110103,29.3105948 L147.883144,27.1293057 C148.443205,28.1609965 149.298034,28.9863491 151.243508,28.9863491 C153.30689,28.9863491 154.574396,27.9251815 154.574396,25.832323 L154.574396,24.4763866 C153.601659,25.6849387 152.186768,26.3923837 150.270771,26.3923837 C146.085054,26.3923837 143.019459,22.9730658 143.019459,18.9052565 C143.019459,14.8374472 146.085054,11.4181292 150.270771,11.4181292 C152.186768,11.4181292 153.601659,12.1255743 154.574396,13.3341263 L154.574396,11.8308055 Z M151.007693,22.3245744 C153.100552,22.3245744 154.574396,20.9391611 154.574396,18.9052565 C154.574396,16.8713518 153.100552,15.4859385 151.007693,15.4859385 C148.914835,15.4859385 147.440991,16.8713518 147.440991,18.9052565 C147.440991,20.9391611 148.914835,22.3245744 151.007693,22.3245744 Z M163.811062,10.5141716 C162.366695,10.5141716 161.158143,9.30561952 161.158143,7.86125245 C161.158143,6.41688537 162.366695,5.20833333 163.811062,5.20833333 C165.255429,5.20833333 166.463981,6.41688537 166.463981,7.86125245 C166.463981,9.30561952 165.255429,10.5141716 163.811062,10.5141716 Z M161.600296,26.5495938 L161.600296,11.8111542 L166.021828,11.8111542 L166.021828,26.5495938 L161.600296,26.5495938 Z M177.38083,11.4181292 C180.357995,11.4181292 182.893007,13.5404645 182.893007,17.5198432 L182.893007,26.569245 L178.471475,26.569245 L178.471475,18.1683345 C178.471475,16.340768 177.321876,15.4859385 175.906986,15.4859385 C174.285758,15.4859385 173.165636,16.4291986 173.165636,18.522057 L173.165636,26.569245 L168.744105,26.569245 L168.744105,11.8308055 L173.165636,11.8308055 L173.165636,13.2162188 C173.961512,12.1255743 175.435356,11.4181292 177.38083,11.4181292 Z M189.358847,20.968638 C189.918907,22.5014357 191.274844,23.0320195 192.896072,23.0320195 C194.104624,23.0320195 195.136315,22.5603895 195.725853,21.9118981 L199.263078,23.9458028 C197.818711,25.9502306 195.637422,26.9819213 192.837118,26.9819213 C187.796572,26.9819213 184.672023,23.5920802 184.672023,19.2000253 C184.672023,14.8079703 187.855526,11.4181292 192.512873,11.4181292 C196.816497,11.4181292 200,14.7490165 200,19.2000253 C200,19.8190397 199.941046,20.4085773 199.823139,20.968638 L189.358847,20.968638 Z M189.270416,17.6672275 C189.683092,16.1639067 190.803214,15.3385541 192.483396,15.3385541 C193.809855,15.3385541 195.136315,15.9575686 195.607945,17.6672275 L189.270416,17.6672275 Z M116.85266,22.0101544 L125.106186,22.0101544 L125.106186,26.5495938 L112.136359,26.5495938 L112.136359,5.91577843 L124.958802,5.91577843 L124.958802,10.4552178 L116.85266,10.4552178 L116.85266,13.8745358 L124.22188,13.8745358 L124.22188,18.3550214 L116.85266,18.3550214 L116.85266,22.0101544 Z M68.148164,20.8507305 C68.7154049,22.3835282 70.0887252,22.914112 71.7307385,22.914112 C72.9547848,22.914112 73.9997024,22.442482 74.5967981,21.7939906 L78.1793726,23.8278953 C76.716488,25.832323 74.5072338,26.8640138 71.6710289,26.8640138 C66.5658602,26.8640138 63.4012527,23.4741727 63.4012527,19.0821177 C63.4012527,14.6900628 66.6255698,11.3002217 71.3426262,11.3002217 C75.7014253,11.3002217 78.9257423,14.631109 78.9257423,19.0821177 C78.9257423,19.7011322 78.8660328,20.2906698 78.7466136,20.8507305 L68.148164,20.8507305 Z M67.9996458,17.54932 L74.3371748,17.54932 C73.8655448,15.839661 72.5390852,15.2206466 71.2126257,15.2206466 C69.5324435,15.2206466 68.4123221,16.0459992 67.9996458,17.54932 Z M91.267307,11.712898 L95.6888388,11.712898 L95.6888388,26.4513375 L91.267307,26.4513375 L91.267307,25.0659242 C90.29457,26.1860456 88.8502029,26.8640138 86.875252,26.8640138 C83.0137808,26.8640138 79.8302779,23.4741727 79.8302779,19.0821177 C79.8302779,14.6900628 83.0137808,11.3002217 86.875252,11.3002217 C88.8502029,11.3002217 90.29457,11.9781899 91.267307,13.0983113 L91.267307,11.712898 Z M87.7595584,22.678297 C89.793463,22.678297 91.267307,21.2928837 91.267307,19.0821177 C91.267307,16.8713518 89.793463,15.4859385 87.7595584,15.4859385 C85.7256537,15.4859385 84.2518098,16.8713518 84.2518098,19.0821177 C84.2518098,21.2928837 85.7256537,22.678297 87.7595584,22.678297 Z M98.4111153,26.4513375 C98.4111153,15.3156276 98.4111153,9.61676436 98.4111153,9.35474765 C98.4111153,6.93109315 99.8849592,5.7192659 102.832647,5.7192659 L102.832647,26.4513375 L98.4111153,26.4513375 Z M52.0035261,5.7192659 C57.6925638,5.7192659 62.025665,10.1997515 62.025665,16.0361736 C62.025665,21.8725956 57.6925638,26.3530812 52.0035261,26.3530812 L43.75,26.3530812 L43.75,5.7192659 L52.0035261,5.7192659 Z M52.0112325,21.8332931 C55.2607534,21.8332931 57.5058769,19.5854304 57.5058769,16.0361736 C57.5058769,12.4869167 55.2607534,10.239054 52.0112325,10.239054 L48.4663006,10.239054 L48.4663006,21.8332931 L52.0112325,21.8332931 Z" id="text" fill="#4C5FD9"></path>
            <path d="M16.6070816,15.9456938 C16.6355544,15.9564124 16.6628231,15.9695888 16.688629,15.9849645 C16.6911794,15.7879038 16.7009961,15.5895223 16.7186626,15.3900617 C17.110896,10.9558244 20.6840578,6.94239135 25.463673,7.36474467 C30.2432881,7.78709798 32.8125,11.9596169 32.8125,16.0901772 C32.8125,16.3280403 32.6599264,17.7134155 32.5472673,18.144402 C32.2422929,14.2945443 28.1489807,11.2282223 24.97071,10.9474048 C21.9518337,10.6806707 18.0992404,12.7803476 16.8840802,16.1938553 C16.8996821,16.2245289 16.9122921,16.2569799 16.9215257,16.290824 C17.0572656,16.1593639 17.1985904,16.0317866 17.3457126,15.9086054 C20.7585428,13.0504771 26.1230755,12.7391583 29.2041249,16.4175055 C32.2851743,20.0958526 31.151465,24.8629762 28.2307179,27.7837234 C28.0625233,27.951918 26.9750292,28.8236404 26.5906137,29.0487318 C29.0972247,26.1108219 28.371033,21.048196 26.3222242,18.6022513 C24.3802258,16.2838209 20.1848273,15.0446515 16.9148099,16.5842485 C16.9028493,16.6212618 16.8867993,16.6564366 16.8671925,16.6892402 C17.0512043,16.6925311 17.2363517,16.7021806 17.4224383,16.7186626 C21.8566756,17.110896 25.8701086,20.6840578 25.4477553,25.463673 C25.025402,30.2432881 20.8528831,32.8125 16.7223228,32.8125 C16.4844597,32.8125 15.0990845,32.6599264 14.668098,32.5472673 C18.5179557,32.2422929 21.5842777,28.1489807 21.8650952,24.97071 C22.1312287,21.9586308 20.0415955,18.1165848 16.6416817,16.8923282 C16.6061828,16.9087636 16.5684893,16.9212627 16.5291614,16.9292652 C16.6579801,17.0626354 16.7830527,17.2013844 16.9038946,17.3457126 C19.7620229,20.7585428 20.0733417,26.1230755 16.3949945,29.2041249 C12.7166474,32.2851743 7.94952378,31.151465 5.02877659,28.2307179 C4.86058201,28.0625233 3.98885959,26.9750292 3.76376817,26.5906137 C6.70167814,29.0972247 11.764304,28.371033 14.2102487,26.3222242 C16.5330735,24.3765449 17.7725422,20.168915 16.219467,16.8962257 C16.1854444,16.8812333 16.1533577,16.8626548 16.1236859,16.840969 C16.1208705,17.033611 16.1111025,17.2275094 16.0938374,17.4224383 C15.701604,21.8566756 12.1284422,25.8701086 7.34882704,25.4477553 C2.56921189,25.025402 -4.17058944e-14,20.8528831 -4.2464666e-14,16.7223228 C-4.25083607e-14,16.4844597 0.152573608,15.0990845 0.265232717,14.668098 C0.570207143,18.5179557 4.6635193,21.5842777 7.84179001,21.8650952 C10.8695584,22.1326149 14.7359622,20.0197628 15.9390888,16.5884473 C15.9291808,16.5586716 15.9219264,16.5276838 15.9176058,16.4957645 C15.7737442,16.6363854 15.6235571,16.7726358 15.4667874,16.9038946 C12.0539572,19.7620229 6.68942447,20.0733417 3.60837507,16.3949945 C0.527325678,12.7166474 1.66103496,7.94952378 4.58178215,5.02877659 C4.74997673,4.86058201 5.83747081,3.98885959 6.22188627,3.76376817 C3.71527528,6.70167814 4.44146696,11.764304 6.49027582,14.2102487 C8.44623148,16.5453418 12.6880943,17.7856048 15.968051,16.1946247 C15.9805625,16.1699241 15.9950125,16.1463717 16.011201,16.1241678 C15.8055152,16.1221767 15.5983769,16.1122882 15.3900617,16.0938374 C10.9558244,15.701604 6.94239135,12.1284422 7.36474467,7.34882704 C7.78709798,2.56921189 11.9596169,6.4344077e-16 16.0901772,-3.68254716e-16 C16.3280403,-4.26514363e-16 17.7134155,0.152573608 18.144402,0.265232717 C14.2945443,0.570207143 11.2282223,4.6635193 10.9474048,7.84179001 C10.6793603,10.8754982 12.8010363,14.7511355 16.2442623,15.9461388 C16.2694374,15.9365906 16.2955588,15.9289656 16.3224472,15.9234432 C16.1798035,15.7778082 16.0416406,15.6256788 15.9086054,15.4667874 C13.0504771,12.0539572 12.7391583,6.68942447 16.4175055,3.60837507 C20.0958526,0.527325678 24.8629762,1.66103496 27.7837234,4.58178215 C27.951918,4.74997673 28.8236404,5.83747081 29.0487318,6.22188627 C26.1108219,3.71527528 21.048196,4.44146696 18.6022513,6.49027582 C16.2724603,8.44179029 15.0325331,12.668843 16.6070816,15.9456938 Z" id="icon" fill="url(#linearGradient-1)"></path>
        </g>
    </g>
</svg>